<svg width="40" height="40" viewBox="0 0 40 40" fill="none" xmlns="http://www.w3.org/2000/svg">
<rect width="40" height="40" rx="12" fill="#DD682F"/>
<path fill-rule="evenodd" clip-rule="evenodd" d="M26.707 15.293C26.8945 15.4806 26.9998 15.7349 26.9998 16C26.9998 16.2652 26.8945 16.5195 26.707 16.707L18.707 24.707C18.5195 24.8945 18.2651 24.9998 18 24.9998C17.7348 24.9998 17.4805 24.8945 17.293 24.707L13.293 20.707C13.1108 20.5184 13.01 20.2658 13.0123 20.0036C13.0146 19.7414 13.1198 19.4906 13.3052 19.3052C13.4906 19.1198 13.7414 19.0146 14.0036 19.0124C14.2658 19.0101 14.5184 19.1109 14.707 19.293L18 22.586L25.293 15.293C25.4805 15.1056 25.7348 15.0002 26 15.0002C26.2651 15.0002 26.5195 15.1056 26.707 15.293Z" fill="white"/>
</svg>
