<svg width="60" height="60" viewBox="0 0 60 60" fill="none" xmlns="http://www.w3.org/2000/svg">
<rect opacity="0.2" width="60" height="60" rx="8" fill="#DD682F"/>
<path fill-rule="evenodd" clip-rule="evenodd" d="M13.08 15.7578C18.5152 15.7827 22.3037 16.466 24.8518 17.6835C27.3233 18.8643 28.6468 20.5514 29.2146 22.7929C29.3653 23.3879 29.9009 23.8047 30.5147 23.8047C31.1285 23.8047 31.664 23.3879 31.8147 22.7929C32.3825 20.5514 33.7061 18.8643 36.1775 17.6835C38.7257 16.466 42.5142 15.7827 47.9494 15.7578V39.8982C38.2691 39.8982 33.5149 41.6334 30.5145 44.5996C27.5246 41.6471 22.7641 39.9012 13.1051 39.8982C13.0936 39.8685 13.08 39.8165 13.08 39.7364V15.7578ZM12.0551 13.2774C12.3817 13.1428 12.7318 13.0742 13.085 13.0756H13.086C18.6759 13.1007 22.9323 13.7936 26.0081 15.2632C28.0088 16.2191 29.4967 17.4988 30.5147 19.0861C31.5327 17.4988 33.0206 16.2191 35.0212 15.2632C38.0971 13.7936 42.3534 13.1007 47.9433 13.0756H47.9444C48.2976 13.0742 48.6476 13.1428 48.9743 13.2774C49.3009 13.412 49.5977 13.6099 49.8475 13.8597C50.0973 14.1095 50.2952 14.4063 50.4298 14.7329C50.5639 15.0586 50.6326 15.4075 50.6316 15.7597V39.8982C50.6316 40.6095 50.3491 41.2918 49.846 41.7948C49.343 42.2978 48.6608 42.5805 47.9494 42.5805C37.3792 42.5805 33.7455 44.712 31.5619 47.4416C31.3074 47.7598 30.9219 47.9451 30.5143 47.945C30.1068 47.9448 29.7215 47.7595 29.467 47.4412C27.2984 44.7276 23.6494 42.5805 13.08 42.5805C12.271 42.5805 11.5631 42.2379 11.0777 41.6678C10.6092 41.1176 10.3977 40.4192 10.3977 39.7364V15.7599C10.3968 15.4077 10.4654 15.0587 10.5996 14.7329C10.7341 14.4063 10.932 14.1095 11.1818 13.8597C11.4317 13.6099 11.7284 13.412 12.0551 13.2774Z" fill="#DD682F"/>
<path fill-rule="evenodd" clip-rule="evenodd" d="M30.5147 21.1224C31.2553 21.1224 31.8558 21.7228 31.8558 22.4636V46.6039C31.8558 47.3446 31.2553 47.945 30.5147 47.945C29.7739 47.945 29.1735 47.3446 29.1735 46.6039V22.4636C29.1735 21.7228 29.7739 21.1224 30.5147 21.1224Z" fill="#DD682F"/>
</svg>
