<svg width="52" height="38" viewBox="0 0 52 38" fill="none" xmlns="http://www.w3.org/2000/svg">
<g clip-path="url(#clip0_190_1838)">
<path d="M25.9818 36.6802C25.9818 36.6802 34.9026 31.7738 34.9026 18.6558C34.9026 8.39696 29.4274 3.14709 27.0545 1.35847C26.7453 1.12579 26.3688 0.999969 25.9818 0.999969C25.5948 0.999969 25.2183 1.12579 24.9091 1.35847C22.5362 3.14709 17.061 8.38804 17.061 18.6558C17.061 31.7738 25.9818 36.6802 25.9818 36.6802Z" stroke="#DD682F" stroke-width="1.98224" stroke-linecap="round" stroke-linejoin="round"/>
<path d="M18.5327 10.0963C15.5621 7.68774 12.7253 6.74883 11.0393 6.38977C10.5957 6.29518 10.1329 6.36877 9.74053 6.59626C9.3482 6.82375 9.05439 7.1889 8.91614 7.62084C8.05082 10.2971 6.95803 16.4658 11.3939 24.1845C15.8297 31.9032 23.2295 36.0937 25.9726 36.6735" stroke="#DD682F" stroke-width="1.98224" stroke-linecap="round" stroke-linejoin="round"/>
<path d="M33.4305 10.0963C36.4011 7.68328 39.229 6.75106 40.9151 6.38977C41.3586 6.29518 41.8215 6.36877 42.2138 6.59626C42.6061 6.82375 42.8999 7.1889 43.0382 7.62084C43.9035 10.2971 44.9963 16.4658 40.5604 24.1845C36.1246 31.9032 28.7248 36.0937 25.9817 36.6802" stroke="#DD682F" stroke-width="1.98224" stroke-linecap="round" stroke-linejoin="round"/>
<path d="M25.9817 36.6802C29.4095 36.6802 35.0742 36.6401 41.593 32.7462C48.1119 28.8522 50.2216 23.9726 50.8974 21.4748C51.0239 21.0241 50.9669 20.5416 50.7387 20.1329C50.5105 19.7242 50.1298 19.4224 49.6797 19.2936C47.428 18.7328 45.0793 18.6841 42.8063 19.1509" stroke="#DD682F" stroke-width="1.98224" stroke-linecap="round" stroke-linejoin="round"/>
<path d="M9.15707 19.1509C6.88406 18.6841 4.53529 18.7328 2.28362 19.2936C1.83357 19.4224 1.45282 19.7242 1.22464 20.1329C0.996449 20.5416 0.939389 21.0241 1.06593 21.4748C1.73499 23.9726 3.85144 28.85 10.3703 32.7462C16.8891 36.6423 22.5538 36.6802 25.9816 36.6802" stroke="#DD682F" stroke-width="1.98224" stroke-linecap="round" stroke-linejoin="round"/>
</g>
<defs>
<clipPath id="clip0_190_1838">
<rect width="52" height="38" fill="white"/>
</clipPath>
</defs>
</svg>
