<svg width="40" height="34" viewBox="0 0 40 34" fill="none" xmlns="http://www.w3.org/2000/svg">
<g clip-path="url(#clip0_190_1867)">
<path d="M20.0557 32.5558C20.0557 32.5558 2 22.8335 2 11.3751C2 8.88866 2.98773 6.50407 4.7459 4.7459C6.50407 2.98773 8.88866 2 11.3751 2C15.297 2 18.6564 4.13717 20.0557 7.55561V32.5558Z" stroke="#DD682F" stroke-width="2.09762" stroke-linecap="round" stroke-linejoin="round"/>
<path d="M20.0557 7.55558C21.2432 4.65451 23.8422 2.75172 27.0002 2.1597" stroke="#DD682F" stroke-width="2.09762" stroke-linecap="round" stroke-linejoin="round"/>
<path d="M33.9448 3.57812C35.0805 4.33681 36.0367 5.33447 36.7465 6.50133C37.4564 7.66818 37.9027 8.97603 38.0542 10.3334" stroke="#DD682F" stroke-width="2.09762" stroke-linecap="round" stroke-linejoin="round"/>
<path d="M36.6011 17.2779C35.5941 19.3005 34.1618 21.2067 32.5559 22.9429" stroke="#DD682F" stroke-width="2.09762" stroke-linecap="round" stroke-linejoin="round"/>
<path d="M27.0002 27.9533C24.8008 29.6549 22.4797 31.1932 20.0557 32.5558" stroke="#DD682F" stroke-width="2.09762" stroke-linecap="round" stroke-linejoin="round"/>
</g>
<defs>
<clipPath id="clip0_190_1867">
<rect width="40" height="34" fill="white"/>
</clipPath>
</defs>
</svg>
